<?xml version="1.0" encoding="utf-8"?>
<svg preserveAspectRatio="xMidYMid meet" version="1.2" viewBox="0 0 498 478" width="100%" xmlns="http://www.w3.org/2000/svg">
<title>Logo</title>
<g id="Layer 1">
<g id="&lt;Group&gt;">
<path d="m249.1 458.9c-29.5 0-58.1-5.8-85.1-17.2-26.1-11-49.4-26.8-69.5-46.9-20.1-20-35.9-43.4-46.9-69.5-11.4-26.9-17.2-55.6-17.2-85.1 0-29.5 5.8-58.2 17.2-85.1 11-26.1 26.8-49.5 46.9-69.5 20.1-20.1 43.4-35.9 69.5-46.9 27-11.4 55.6-17.2 85.1-17.2 29.5 0 58.2 5.8 85.2 17.2 26 11 49.4 26.8 69.5 46.9 20.1 20 35.8 43.4 46.8 69.5 11.4 26.9 17.2 55.6 17.2 85.1 0 29.5-5.8 58.2-17.2 85.1-11 26.1-26.7 49.5-46.8 69.5-20.1 20.1-43.5 35.9-69.5 46.9-27 11.4-55.7 17.2-85.2 17.2zm0-428.2c-115.5 0-209.4 94-209.4 209.5 0 115.5 93.9 209.5 209.4 209.5 115.5 0 209.5-94 209.5-209.5 0-115.5-94-209.5-209.5-209.5z" fill="#fca501" fill-rule="evenodd" id="&lt;Compound Path&gt;"/>
<path d="m249.1 385.5c-31 0-60.7-9.7-85.7-28-18.1-13.2-33-30.6-43.3-50.5-10.7-20.5-16.3-43.6-16.3-66.8 0-38.8 15.1-75.3 42.6-102.7 27.4-27.5 63.9-42.6 102.7-42.6 38.8 0 75.3 15.1 102.8 42.6 27.4 27.4 42.5 63.9 42.5 102.7 0 23.2-5.6 46.3-16.2 66.8-10.3 19.9-25.3 37.3-43.4 50.5-25 18.3-54.6 28-85.7 28zm0-281.4c-75 0-136 61.1-136 136.1 0 43.2 20.8 84.3 55.8 109.9 23.4 17.1 51.1 26.2 80.2 26.2 29.1 0 56.9-9.1 80.3-26.2 34.9-25.6 55.8-66.7 55.8-109.9 0-75-61.1-136.1-136.1-136.1z" fill="#fca501" fill-rule="evenodd" id="&lt;Compound Path&gt;"/>
<path d="m249.1 386.4c-31.2 0-61.1-9.8-86.2-28.2l-6.8-5 7.3-4.2c26-14.8 55.6-22.7 85.7-22.7 30.1 0 59.8 7.9 85.7 22.7l7.4 4.2-6.9 5c-25.1 18.4-54.9 28.2-86.2 28.2zm-72.4-32c21.6 13.7 46.5 21 72.4 21 26 0 50.8-7.3 72.4-21-22.3-11.2-47.2-17.1-72.4-17.1-25.2 0-50 5.9-72.4 17.1z" fill="#fca501" fill-rule="evenodd" id="&lt;Compound Path&gt;"/>
<g id="&lt;Group&gt;">
<path d="m158.8 238.6h-50.2c-2.6 0-4.6-2.1-4.6-4.7 0-2.5 2-4.6 4.6-4.6h50.2c2.5 0 4.6 2.1 4.6 4.6 0 2.6-2.1 4.7-4.6 4.7z" fill="#fca501" id="&lt;Path&gt;"/>
<path d="m172.8 274.2h-61.3c-2.5 0-4.6-2.1-4.6-4.6 0-2.6 2.1-4.6 4.6-4.6h61.3c2.5 0 4.6 2 4.6 4.6 0 2.5-2.1 4.6-4.6 4.6z" fill="#fca501" id="&lt;Path&gt;"/>
<path d="m191.7 309.9h-67.4c-2.5 0-4.6-2.1-4.6-4.7 0-2.5 2.1-4.6 4.6-4.6h67.4c2.6 0 4.7 2.1 4.7 4.6 0 2.6-2.1 4.7-4.7 4.7z" fill="#fca501" id="&lt;Path&gt;"/>
</g>
<g id="&lt;Group&gt;">
<path d="m389.7 238.6h-50.5c-2.6 0-4.7-2.1-4.7-4.7 0-2.5 2.1-4.6 4.7-4.6h50.5c2.5 0 4.6 2.1 4.6 4.6 0 2.6-2.1 4.7-4.6 4.7z" fill="#fca501" id="&lt;Path&gt;"/>
<path d="m386.7 274.2h-61.5c-2.6 0-4.7-2.1-4.7-4.6 0-2.6 2.1-4.6 4.7-4.6h61.5c2.6 0 4.6 2 4.6 4.6 0 2.5-2 4.6-4.6 4.6z" fill="#fca501" id="&lt;Path&gt;"/>
<path d="m373.9 309.9h-67.7c-2.6 0-4.6-2.1-4.6-4.7 0-2.5 2-4.6 4.6-4.6h67.7c2.5 0 4.6 2.1 4.6 4.6 0 2.6-2.1 4.7-4.6 4.7z" fill="#fca501" id="&lt;Path&gt;"/>
</g>
<path d="m248.9 317.7c-1.3 0-2.5-0.5-3.4-1.5-1.7-1.8-41.4-45.3-59.4-93.2-8.7-23.1-6.6-46.1 6-64.8 12.5-18.6 33.7-30 56.7-30.6q0.1 0 0.3 0c23 0.6 44.2 12 56.7 30.6 12.6 18.7 14.7 41.7 6 64.8-18 47.9-57.8 91.4-59.4 93.2-0.9 1-2.2 1.5-3.5 1.5zm0-180.8c-20 0.6-38.3 10.5-49.1 26.5-10.9 16.1-12.6 36.1-5 56.3 14.3 38.2 44.1 74.7 54.1 86.4 10.1-11.7 39.8-48.2 54.2-86.4 7.6-20.2 5.8-40.2-5-56.3-10.8-16-29.2-25.9-49.2-26.5z" fill="#fca501" fill-rule="evenodd" id="&lt;Compound Path&gt;"/>
<path d="m248.9 317.7c-2.5 0-4.6-2.1-4.6-4.6v-74.8c0-2.6 2.1-4.7 4.6-4.7 2.6 0 4.7 2.1 4.7 4.7v74.8c0 2.5-2.1 4.6-4.7 4.6z" fill="#fca501" id="&lt;Path&gt;"/>
<path d="m232 194.8c-2.6 0-4.6-2.1-4.6-4.6v-28.1c0-2.6 2-4.6 4.6-4.6 2.5 0 4.6 2 4.6 4.6v28.1c0 2.5-2.1 4.6-4.6 4.6z" fill="#fca501" id="&lt;Path&gt;"/>
<path d="m266.5 194.8c-2.6 0-4.7-2.1-4.7-4.6v-28.1c0-2.6 2.1-4.6 4.7-4.6 2.5 0 4.6 2 4.6 4.6v28.1c0 2.5-2.1 4.6-4.6 4.6z" fill="#fca501" id="&lt;Path&gt;"/>
<path d="m281.9 195.6h-65c-1.4 0-2.6-1.2-2.6-2.6v-4c0-1.5 1.2-2.6 2.6-2.6h65c1.5 0 2.6 1.1 2.6 2.6v4c0 1.4-1.1 2.6-2.6 2.6z" fill="#fca501" id="&lt;Path&gt;"/>
<path d="m249.5 241c-17.5 0-31.7-14.2-31.7-31.7v-16.7c0-2.6 2.1-4.7 4.6-4.7 2.6 0 4.7 2.1 4.7 4.7v16.7c0 12.4 10 22.4 22.4 22.4 12.3 0 22.4-10 22.4-22.4v-16.2c0-2.6 2.1-4.6 4.6-4.6 2.6 0 4.6 2 4.6 4.6v16.2c0 17.5-14.2 31.7-31.6 31.7z" fill="#fca501" id="&lt;Path&gt;"/>
<g id="&lt;Group&gt;">
<g id="&lt;Group&gt;">
<path d="m57.4 256.2q-0.2-2.8 0.3-5 0.5-2.1 1.7-3.8 2.2-3.2 6.5-4.4l1.6 6q-2.4 0.9-3.8 2.6-1.4 1.7-1.2 4.1 0.2 3.3 3.1 5.1 3.1 1.9 8.4 1.5 5.2-0.4 8-2.5 2.8-2.1 2.6-5.4-0.3-3.3-2-4.9-1.7-1.5-4.3-1.4l-0.4-6q5.2-0.4 8.3 2.7 3.1 3.1 3.5 8.9 0.5 6.2-3.6 10.1-4.1 4-11.7 4.6-7.6 0.6-12.2-2.9-4.4-3.3-4.8-9.3z" fill="#fca501" id="&lt;Compound Path&gt;"/>
<path d="m84 231.3l1-12.8 4.9 0.4-1.4 18.4-31-2.4 0.4-5.6z" fill="#fca501" id="&lt;Compound Path&gt;"/>
<path d="m60 209.5l4.4-19.6 4.8 1.1-3.2 14 8 1.8 3-13.2 4.8 1.1-3 13.2 8 1.8 3.2-14.1 4.8 1.1-4.4 19.6z" fill="#fca501" id="&lt;Compound Path&gt;"/>
<path d="m70.2 173.2l2.7-6.6 32.7 2.2-2.2 5.6-7.1-0.6-4.3 10.8 5.4 4.5-2.3 5.6zm18.3 8.4l3.3-8-14-1.1z" fill="#fca501" fill-rule="evenodd" id="&lt;Compound Path&gt;"/>
<path d="m101 135.4q2.8 1.8 3.8 4.6 1 2.8 0 6.3l15.1-0.4-3.9 6.3-13.9-0.6-2.3 3.6 10.3 6.5-3 4.8-26.4-16.5 6.1-9.8q2.9-4.7 6.8-5.9 3.7-1.2 7.4 1.1zm-1.6 13.3q1.7-2.6 1.3-4.7-0.4-2.1-2.3-3.4-2-1.2-4-0.7-1.9 0.5-3.5 2.9l-3.1 5 8.8 5.4z" fill="#fca501" fill-rule="evenodd" id="&lt;Compound Path&gt;"/>
<path d="m122.6 135.4l8.4-9.7 3.7 3.2-12 14-23.6-20.3 3.7-4.3z" fill="#fca501" id="&lt;Compound Path&gt;"/>
<path d="m115.8 104.4l4.1-3.9 21.3 22.7-4.1 3.9z" fill="#fca501" id="&lt;Compound Path&gt;"/>
<path d="m132.7 89.7l23.9 10-12.8-18 4.6-3.3 18.1 25.4-4.7 3.3-24.7-10.4 13.2 18.6-4.6 3.3-18.1-25.3z" fill="#fca501" id="&lt;Compound Path&gt;"/>
<path d="m158.6 72.8l18.1-8.6 2.1 4.4-13 6.2 3.5 7.4 12.2-5.8 2.1 4.4-12.2 5.8 3.5 7.4 13-6.1 2.1 4.4-18.1 8.6z" fill="#fca501" id="&lt;Compound Path&gt;"/>
<path d="m198 57l19.1-4.4 1.1 4.8-13.6 3.1 1.8 8 12.5-2.8 1 4.7-12.4 2.8 2.9 12.9-5.5 1.3z" fill="#fca501" id="&lt;Compound Path&gt;"/>
<path d="m224.9 51.8l5.6-0.7 3.5 31-5.6 0.6z" fill="#fca501" id="&lt;Compound Path&gt;"/>
<path d="m240.9 50.1l20.1 0.3-0.1 4.9-14.4-0.2-0.1 8.2 13.4 0.2v4.9l-13.5-0.2-0.1 8.2 14.3 0.2v4.9l-20.1-0.3z" fill="#fca501" id="&lt;Compound Path&gt;"/>
<path d="m272.4 78l12.7 1.9-0.8 4.9-18.2-2.7 4.6-30.8 5.6 0.8z" fill="#fca501" id="&lt;Compound Path&gt;"/>
<path d="m305.9 58.7q6.8 2.1 9.7 7.5 2.9 5.3 0.7 12.2-2.1 6.7-7.6 9.4-5.5 2.7-12.2 0.5l-9.7-3 9.5-29.7zm-12.1 23.4l4.2 1.4q4.2 1.3 7.7-0.7 3.3-1.9 4.7-6.3 1.4-4.4-0.2-7.9-1.6-3.6-5.9-5l-4.2-1.3z" fill="#fca501" fill-rule="evenodd" id="&lt;Compound Path&gt;"/>
<path d="m350.3 88.9q1.4-3.9-2.8-6.5-2.1-1.3-3.8-1.1-1.6 0.1-2.4 1.3-0.7 1.2-0.4 2.3 0.4 1.1 1.6 2.7l4.4 5.8q2.2 2.9 2.7 5.7 0.6 2.7-1 5.3-2.3 3.6-6.3 4-3.9 0.5-8.9-2.6-4.4-2.7-5.8-6.6-1.6-4.2 0.9-8.7l4.7 3q-2 3.2 0.9 6.2 0.8 0.9 2.5 1.9 1.7 1.1 3.6 1.1 2 0.1 2.8-1.3 0.9-1.5 0.6-2.7-0.3-1.2-1.7-3l-3.9-5.3q-2.4-3.1-3-5.7-0.7-2.6 1.1-5.4 2-3.3 5.8-3.6 3.8-0.4 8.3 2.3 4.4 2.8 5.6 6.4 1.2 3.5-0.8 7.5z" fill="#fca501" id="&lt;Compound Path&gt;"/>
<path d="m369.5 92.3l-2.9 13.9 13.6-4.7 5 4.3-20.3 6.6-8.4 9.8-4.3-3.7 8.4-9.8 3.8-20.8z" fill="#fca501" id="&lt;Compound Path&gt;"/>
<path d="m393.2 128.3q2.6-3.2-0.6-7-1.5-1.9-3.2-2.3-1.6-0.4-2.7 0.5-1 0.9-1.1 2 0 1.2 0.7 3.1l2.3 6.9q1.2 3.5 0.9 6.2-0.4 2.8-2.7 4.7-3.3 2.8-7.2 1.9-3.9-0.8-7.7-5.3-3.3-3.9-3.4-8-0.2-4.6 3.5-8l3.6 4.3q-2.9 2.5-1.1 6.2 0.5 1.1 1.8 2.6 1.3 1.5 3.1 2.2 1.8 0.6 3.1-0.5 1.3-1 1.3-2.3 0.1-1.3-0.6-3.3l-2.1-6.4q-1.3-3.6-1.1-6.3 0.2-2.6 2.7-4.8 3-2.5 6.7-1.6 3.8 0.8 7.1 4.8 3.4 4 3.4 7.8 0 3.7-3.1 6.9z" fill="#fca501" id="&lt;Compound Path&gt;"/>
<path d="m407.4 132.4l12.9 21.4-4.2 2.5-5-8.2-22.4 13.5-3-4.8 22.5-13.6-5-8.2z" fill="#fca501" id="&lt;Compound Path&gt;"/>
<path d="m423.2 160l7.6 18.5-4.5 1.9-5.5-13.3-7.6 3.1 5.2 12.5-4.5 1.8-5.2-12.4-7.6 3.1 5.5 13.3-4.5 1.9-7.7-18.5z" fill="#fca501" id="&lt;Compound Path&gt;"/>
<path d="m436.3 197.2l-16.6 11.9 19.8 4.9 1.5 7.7-30.6 5.9-1.1-5.6 23.3-4.5-21.6-4.8-0.7-3.7 18.8-12.9-23.9 4.6-1.1-5.5 30.6-5.9z" fill="#fca501" id="&lt;Compound Path&gt;"/>
<path d="m432.7 250.2q4.1-0.7 4.1-5.7 0.1-2.5-0.9-3.8-1-1.4-2.3-1.4-1.4-0.1-2.2 0.8-0.8 0.9-1.5 2.7l-2.8 6.8q-1.4 3.4-3.4 5.3-2.1 1.8-5.2 1.8-4.2-0.1-6.6-3.3-2.4-3.2-2.4-9 0.1-5.2 2.7-8.4 2.8-3.6 7.9-3.7l-0.1 5.6q-3.8 0-4.9 3.9-0.3 1.2-0.3 3.2-0.1 2 0.9 3.7 1 1.6 2.6 1.7 1.7 0 2.6-0.9 0.9-0.9 1.7-3l2.5-6.1q1.4-3.6 3.3-5.5 1.9-1.9 5.2-1.8 3.9 0 6.1 3.1 2.3 3.1 2.3 8.3-0.1 5.3-2.6 8.1-2.4 2.8-6.8 3.2z" fill="#fca501" id="&lt;Compound Path&gt;"/>
</g>
</g>
<g id="&lt;Group&gt;">
<g id="&lt;Group&gt;">
<path d="m111.1 329q1.2 1.8 1.5 3.4 0.4 1.6 0.3 3-0.4 2.9-2.8 5.1l-3-3.3q1.2-1.4 1.5-3 0.3-1.6-0.6-3.1-1.3-2-3.8-2.2-2.7-0.2-5.9 1.9-3.3 2-4.4 4.3-1.1 2.4 0.2 4.5 1.3 2 3 2.4 1.6 0.5 3.2-0.5l2.4 3.8q-3.3 2-6.4 1-3-0.9-5.3-4.5-2.4-3.9-1.2-7.9 1.4-4 6.1-6.9 4.7-3 8.9-2.4 4 0.7 6.3 4.4z" fill="#fca501" id="&lt;Compound Path&gt;"/>
<path d="m118.4 340.7l9.4 11.3-2.8 2.3-6.7-8.1-4.7 3.8 6.3 7.6-2.7 2.3-6.3-7.6-4.7 3.8 6.7 8.2-2.8 2.3-9.3-11.4z" fill="#fca501" id="&lt;Compound Path&gt;"/>
<path d="m139.2 372.9q-1.6 1.8-3.8 2.1-2.2 0.3-4.5-1l-1.9 11-4-3.7 2.4-9.9-2.3-2.2-6.1 6.5-3-2.8 15.6-16.7 6.2 5.7q2.9 2.8 3.3 5.8 0.3 2.9-1.9 5.2zm-9.3-3.1q1.6 1.6 3.2 1.6 1.6 0.1 2.7-1.2 1.2-1.2 1.1-2.7 0-1.5-1.6-2.9l-3.1-3-5.2 5.6z" fill="#fca501" fill-rule="evenodd" id="&lt;Compound Path&gt;"/>
<path d="m145.7 369.2l14.8 10.7-2.1 3-5.7-4.2-11.3 15.6-3.4-2.4 11.3-15.6-5.8-4.2z" fill="#fca501" id="&lt;Compound Path&gt;"/>
<path d="m163.7 381.7l3.6 2.2-11.8 19.6-3.5-2.1z" fill="#fca501" id="&lt;Compound Path&gt;"/>
<path d="m172.9 387.1l13 6.3-1.5 3.2-9.3-4.4-2.6 5.4 8.5 4.1-1.6 3.2-8.4-4.1-4.2 8.7-3.8-1.8z" fill="#fca501" id="&lt;Compound Path&gt;"/>
<path d="m190.5 395l3.9 1.4-8 21.5-3.9-1.5z" fill="#fca501" id="&lt;Compound Path&gt;"/>
<path d="m200.4 398.6l14.3 3.8-1 3.5-10.2-2.7-1.5 5.8 9.6 2.5-1 3.5-9.5-2.5-1.6 5.8 10.2 2.7-0.9 3.5-14.2-3.8z" fill="#fca501" id="&lt;Compound Path&gt;"/>
<path d="m227.5 404.5q5.1 0.6 7.9 4.1 2.9 3.5 2.2 8.7-0.6 5.2-4.2 7.8-3.6 2.7-8.8 2.1l-7.4-1 2.9-22.7zm-5.6 18.6l3.2 0.4q3.2 0.4 5.5-1.5 2.2-1.9 2.6-5.2 0.4-3.4-1.2-5.7-1.7-2.4-5-2.8l-3.2-0.4z" fill="#fca501" fill-rule="evenodd" id="&lt;Compound Path&gt;"/>
<path d="m253.2 405.9l4.2-0.2 0.8 22.9-4.2 0.1z" fill="#fca501" id="&lt;Compound Path&gt;"/>
<path d="m260.8 405.8l18.2-2.3 0.5 3.6-7 0.8 2.3 19.2-4.1 0.5-2.4-19.1-7 0.8z" fill="#fca501" id="&lt;Compound Path&gt;"/>
<path d="m304.5 403.2q-1.5-2.7-5-1.6-1.7 0.5-2.4 1.5-0.8 1-0.5 2 0.3 1 1.1 1.3 0.8 0.4 2.3 0.4l5.3 0.4q2.7 0.2 4.5 1.2 1.8 1 2.4 3.2 1 2.9-0.7 5.3-1.7 2.5-5.8 3.8-3.6 1.1-6.4 0-3.2-1.1-4.4-4.6l3.9-1.3q0.9 2.7 3.9 2.5 0.9 0 2.3-0.4 1.3-0.5 2.3-1.5 1-1.1 0.6-2.2-0.4-1.2-1.2-1.6-0.8-0.4-2.5-0.5l-4.8-0.4q-2.9-0.2-4.6-1-1.8-0.9-2.5-3.2-0.9-2.8 0.8-5 1.6-2.3 5.3-3.5 3.6-1.2 6.2-0.1 2.5 1.1 3.8 4z" fill="#fca501" id="&lt;Compound Path&gt;"/>
<path d="m312 393.7l13.4-6.2 1.5 3.2-9.6 4.5 2.6 5.5 8.9-4.2 1.6 3.2-9 4.2 2.5 5.5 9.6-4.5 1.5 3.3-13.3 6.2z" fill="#fca501" id="&lt;Compound Path&gt;"/>
<path d="m348.4 381.6q1.3 2.1 1.1 4.2-0.2 2.2-2.1 4.2l10.2 4.6-4.6 2.9-9-4.9-2.7 1.7 4.8 7.6-3.5 2.2-12.3-19.3 7.2-4.5q3.4-2.2 6.3-1.8 2.9 0.4 4.6 3.1zm-5.3 8.3q2-1.2 2.4-2.7 0.4-1.5-0.5-3-0.9-1.4-2.4-1.7-1.4-0.3-3.2 0.8l-3.6 2.3 4 6.4z" fill="#fca501" fill-rule="evenodd" id="&lt;Compound Path&gt;"/>
<path d="m350.3 371.3l15.6 9.9-7-17.1 3.4-2.9 8.6 22.6-3.3 2.8-20.7-12.5z" fill="#fca501" id="&lt;Compound Path&gt;"/>
<path d="m364.9 358.3l2.9-3 16.3 16.1-2.9 2.9z" fill="#fca501" id="&lt;Compound Path&gt;"/>
<path d="m377 344q1.4-1.6 2.7-2.5 1.4-0.9 2.8-1.2 2.8-0.6 5.8 0.9l-2.2 4q-1.7-0.7-3.3-0.5-1.6 0.2-2.7 1.6-1.5 1.9-0.9 4.3 0.7 2.6 3.7 5 3 2.4 5.6 2.7 2.6 0.2 4.1-1.7 1.5-1.9 1.4-3.6-0.2-1.7-1.6-2.8l2.8-3.5q3 2.4 3.1 5.6 0.1 3.2-2.6 6.6-2.8 3.5-7 3.6-4.2 0.1-8.6-3.4-4.4-3.5-5.1-7.7-0.7-4 2-7.4z" fill="#fca501" id="&lt;Compound Path&gt;"/>
<path d="m385.7 333.3l7.6-12.6 3.1 1.9-5.5 9 5.1 3.2 5.2-8.5 3.1 1.9-5.2 8.4 5.2 3.2 5.5-9.1 3.1 1.9-7.7 12.6z" fill="#fca501" id="&lt;Compound Path&gt;"/>
</g>
</g>
<path d="m84.4 289.4c0 0-3.3 7.4-4 9-0.6 1.6-7.9 2.4-10.2 5.3 0 0 0 1.1 9.1 2.8 1.8 4 3.9 9 3.9 9 0 0 3.6-7.5 6.2-9.2 2.6-1.7 6-3.3 6-3.3 0 0-5.8-2.3-7.9-4.6-2-2.2-3.1-9-3.1-9z" fill="#fca501" id="&lt;Path&gt;"/>
<path d="m418.3 306.8c0 0 2.8-7.8 4.4-9.4 1.7-1.6 10.2-3.8 10.2-3.8 0 0-10.1-2.9-10.9-4.7-0.7-1.8-3.7-8.4-3.7-8.4 0 0-3.3 7.8-3.7 8.7-0.3 0.9-3.8 2.9-8.2 4.5 1.4 1.2 7.3 2.7 7.3 2.7z" fill="#fca501" id="&lt;Path&gt;"/>
</g>
</g>
<g id="Layer 1 copy 2">
<g id="&lt;Group&gt;">
<path d="m249.1 458.9c-29.5 0-58.1-5.8-85.1-17.2-26.1-11-49.4-26.8-69.5-46.9-20.1-20-35.9-43.4-46.9-69.5-11.4-26.9-17.2-55.6-17.2-85.1 0-29.5 5.8-58.2 17.2-85.1 11-26.1 26.8-49.5 46.9-69.5 20.1-20.1 43.4-35.9 69.5-46.9 27-11.4 55.6-17.2 85.1-17.2 29.5 0 58.2 5.8 85.2 17.2 26 11 49.4 26.8 69.5 46.9 20.1 20 35.8 43.4 46.8 69.5 11.4 26.9 17.2 55.6 17.2 85.1 0 29.5-5.8 58.2-17.2 85.1-11 26.1-26.7 49.5-46.8 69.5-20.1 20.1-43.5 35.9-69.5 46.9-27 11.4-55.7 17.2-85.2 17.2zm0-428.2c-115.5 0-209.4 94-209.4 209.5 0 115.5 93.9 209.5 209.4 209.5 115.5 0 209.5-94 209.5-209.5 0-115.5-94-209.5-209.5-209.5z" fill="#fca501" fill-rule="evenodd" id="&lt;Compound Path&gt;"/>
<path d="m249.1 385.5c-31 0-60.7-9.7-85.7-28-18.1-13.2-33-30.6-43.3-50.5-10.7-20.5-16.3-43.6-16.3-66.8 0-38.8 15.1-75.3 42.6-102.7 27.4-27.5 63.9-42.6 102.7-42.6 38.8 0 75.3 15.1 102.8 42.6 27.4 27.4 42.5 63.9 42.5 102.7 0 23.2-5.6 46.3-16.2 66.8-10.3 19.9-25.3 37.3-43.4 50.5-25 18.3-54.6 28-85.7 28zm0-281.4c-75 0-136 61.1-136 136.1 0 43.2 20.8 84.3 55.8 109.9 23.4 17.1 51.1 26.2 80.2 26.2 29.1 0 56.9-9.1 80.3-26.2 34.9-25.6 55.8-66.7 55.8-109.9 0-75-61.1-136.1-136.1-136.1z" fill="#fca501" fill-rule="evenodd" id="&lt;Compound Path&gt;"/>
<path d="m249.1 386.4c-31.2 0-61.1-9.8-86.2-28.2l-6.8-5 7.3-4.2c26-14.8 55.6-22.7 85.7-22.7 30.1 0 59.8 7.9 85.7 22.7l7.4 4.2-6.9 5c-25.1 18.4-54.9 28.2-86.2 28.2zm-72.4-32c21.6 13.7 46.5 21 72.4 21 26 0 50.8-7.3 72.4-21-22.3-11.2-47.2-17.1-72.4-17.1-25.2 0-50 5.9-72.4 17.1z" fill="#fca501" fill-rule="evenodd" id="&lt;Compound Path&gt;"/>
<g id="&lt;Group&gt;">
<path d="m158.8 238.6h-50.2c-2.6 0-4.6-2.1-4.6-4.7 0-2.5 2-4.6 4.6-4.6h50.2c2.5 0 4.6 2.1 4.6 4.6 0 2.6-2.1 4.7-4.6 4.7z" fill="#fca501" id="&lt;Path&gt;"/>
<path d="m172.8 274.2h-61.3c-2.5 0-4.6-2.1-4.6-4.6 0-2.6 2.1-4.6 4.6-4.6h61.3c2.5 0 4.6 2 4.6 4.6 0 2.5-2.1 4.6-4.6 4.6z" fill="#fca501" id="&lt;Path&gt;"/>
<path d="m191.7 309.9h-67.4c-2.5 0-4.6-2.1-4.6-4.7 0-2.5 2.1-4.6 4.6-4.6h67.4c2.6 0 4.7 2.1 4.7 4.6 0 2.6-2.1 4.7-4.7 4.7z" fill="#fca501" id="&lt;Path&gt;"/>
</g>
<g id="&lt;Group&gt;">
<path d="m389.7 238.6h-50.5c-2.6 0-4.7-2.1-4.7-4.7 0-2.5 2.1-4.6 4.7-4.6h50.5c2.5 0 4.6 2.1 4.6 4.6 0 2.6-2.1 4.7-4.6 4.7z" fill="#fca501" id="&lt;Path&gt;"/>
<path d="m386.7 274.2h-61.5c-2.6 0-4.7-2.1-4.7-4.6 0-2.6 2.1-4.6 4.7-4.6h61.5c2.6 0 4.6 2 4.6 4.6 0 2.5-2 4.6-4.6 4.6z" fill="#fca501" id="&lt;Path&gt;"/>
<path d="m373.9 309.9h-67.7c-2.6 0-4.6-2.1-4.6-4.7 0-2.5 2-4.6 4.6-4.6h67.7c2.5 0 4.6 2.1 4.6 4.6 0 2.6-2.1 4.7-4.6 4.7z" fill="#fca501" id="&lt;Path&gt;"/>
</g>
<path d="m248.9 317.7c-1.3 0-2.5-0.5-3.4-1.5-1.7-1.8-41.4-45.3-59.4-93.2-8.7-23.1-6.6-46.1 6-64.8 12.5-18.6 33.7-30 56.7-30.6q0.1 0 0.3 0c23 0.6 44.2 12 56.7 30.6 12.6 18.7 14.7 41.7 6 64.8-18 47.9-57.8 91.4-59.4 93.2-0.9 1-2.2 1.5-3.5 1.5zm0-180.8c-20 0.6-38.3 10.5-49.1 26.5-10.9 16.1-12.6 36.1-5 56.3 14.3 38.2 44.1 74.7 54.1 86.4 10.1-11.7 39.8-48.2 54.2-86.4 7.6-20.2 5.8-40.2-5-56.3-10.8-16-29.2-25.9-49.2-26.5z" fill="#fca501" fill-rule="evenodd" id="&lt;Compound Path&gt;"/>
<path d="m248.9 317.7c-2.5 0-4.6-2.1-4.6-4.6v-74.8c0-2.6 2.1-4.7 4.6-4.7 2.6 0 4.7 2.1 4.7 4.7v74.8c0 2.5-2.1 4.6-4.7 4.6z" fill="#fca501" id="&lt;Path&gt;"/>
<path d="m232 194.8c-2.6 0-4.6-2.1-4.6-4.6v-28.1c0-2.6 2-4.6 4.6-4.6 2.5 0 4.6 2 4.6 4.6v28.1c0 2.5-2.1 4.6-4.6 4.6z" fill="#fca501" id="&lt;Path&gt;"/>
<path d="m266.5 194.8c-2.6 0-4.7-2.1-4.7-4.6v-28.1c0-2.6 2.1-4.6 4.7-4.6 2.5 0 4.6 2 4.6 4.6v28.1c0 2.5-2.1 4.6-4.6 4.6z" fill="#fca501" id="&lt;Path&gt;"/>
<path d="m281.9 195.6h-65c-1.4 0-2.6-1.2-2.6-2.6v-4c0-1.5 1.2-2.6 2.6-2.6h65c1.5 0 2.6 1.1 2.6 2.6v4c0 1.4-1.1 2.6-2.6 2.6z" fill="#fca501" id="&lt;Path&gt;"/>
<path d="m249.5 241c-17.5 0-31.7-14.2-31.7-31.7v-16.7c0-2.6 2.1-4.7 4.6-4.7 2.6 0 4.7 2.1 4.7 4.7v16.7c0 12.4 10 22.4 22.4 22.4 12.3 0 22.4-10 22.4-22.4v-16.2c0-2.6 2.1-4.6 4.6-4.6 2.6 0 4.6 2 4.6 4.6v16.2c0 17.5-14.2 31.7-31.6 31.7z" fill="#fca501" id="&lt;Path&gt;"/>
<g id="&lt;Group&gt;">
<g id="&lt;Group&gt;">
<path d="m57.4 256.2q-0.2-2.8 0.3-5 0.5-2.1 1.7-3.8 2.2-3.2 6.5-4.4l1.6 6q-2.4 0.9-3.8 2.6-1.4 1.7-1.2 4.1 0.2 3.3 3.1 5.1 3.1 1.9 8.4 1.5 5.2-0.4 8-2.5 2.8-2.1 2.6-5.4-0.3-3.3-2-4.9-1.7-1.5-4.3-1.4l-0.4-6q5.2-0.4 8.3 2.7 3.1 3.1 3.5 8.9 0.5 6.2-3.6 10.1-4.1 4-11.7 4.6-7.6 0.6-12.2-2.9-4.4-3.3-4.8-9.3z" fill="#fca501" id="&lt;Compound Path&gt;"/>
<path d="m84 231.3l1-12.8 4.9 0.4-1.4 18.4-31-2.4 0.4-5.6z" fill="#fca501" id="&lt;Compound Path&gt;"/>
<path d="m60 209.5l4.4-19.6 4.8 1.1-3.2 14 8 1.8 3-13.2 4.8 1.1-3 13.2 8 1.8 3.2-14.1 4.8 1.1-4.4 19.6z" fill="#fca501" id="&lt;Compound Path&gt;"/>
<path d="m70.2 173.2l2.7-6.6 32.7 2.2-2.2 5.6-7.1-0.6-4.3 10.8 5.4 4.5-2.3 5.6zm18.3 8.4l3.3-8-14-1.1z" fill="#fca501" fill-rule="evenodd" id="&lt;Compound Path&gt;"/>
<path d="m101 135.4q2.8 1.8 3.8 4.6 1 2.8 0 6.3l15.1-0.4-3.9 6.3-13.9-0.6-2.3 3.6 10.3 6.5-3 4.8-26.4-16.5 6.1-9.8q2.9-4.7 6.8-5.9 3.7-1.2 7.4 1.1zm-1.6 13.3q1.7-2.6 1.3-4.7-0.4-2.1-2.3-3.4-2-1.2-4-0.7-1.9 0.5-3.5 2.9l-3.1 5 8.8 5.4z" fill="#fca501" fill-rule="evenodd" id="&lt;Compound Path&gt;"/>
<path d="m122.6 135.4l8.4-9.7 3.7 3.2-12 14-23.6-20.3 3.7-4.3z" fill="#fca501" id="&lt;Compound Path&gt;"/>
<path d="m115.8 104.4l4.1-3.9 21.3 22.7-4.1 3.9z" fill="#fca501" id="&lt;Compound Path&gt;"/>
<path d="m132.7 89.7l23.9 10-12.8-18 4.6-3.3 18.1 25.4-4.7 3.3-24.7-10.4 13.2 18.6-4.6 3.3-18.1-25.3z" fill="#fca501" id="&lt;Compound Path&gt;"/>
<path d="m158.6 72.8l18.1-8.6 2.1 4.4-13 6.2 3.5 7.4 12.2-5.8 2.1 4.4-12.2 5.8 3.5 7.4 13-6.1 2.1 4.4-18.1 8.6z" fill="#fca501" id="&lt;Compound Path&gt;"/>
<path d="m198 57l19.1-4.4 1.1 4.8-13.6 3.1 1.8 8 12.5-2.8 1 4.7-12.4 2.8 2.9 12.9-5.5 1.3z" fill="#fca501" id="&lt;Compound Path&gt;"/>
<path d="m224.9 51.8l5.6-0.7 3.5 31-5.6 0.6z" fill="#fca501" id="&lt;Compound Path&gt;"/>
<path d="m240.9 50.1l20.1 0.3-0.1 4.9-14.4-0.2-0.1 8.2 13.4 0.2v4.9l-13.5-0.2-0.1 8.2 14.3 0.2v4.9l-20.1-0.3z" fill="#fca501" id="&lt;Compound Path&gt;"/>
<path d="m272.4 78l12.7 1.9-0.8 4.9-18.2-2.7 4.6-30.8 5.6 0.8z" fill="#fca501" id="&lt;Compound Path&gt;"/>
<path d="m305.9 58.7q6.8 2.1 9.7 7.5 2.9 5.3 0.7 12.2-2.1 6.7-7.6 9.4-5.5 2.7-12.2 0.5l-9.7-3 9.5-29.7zm-12.1 23.4l4.2 1.4q4.2 1.3 7.7-0.7 3.3-1.9 4.7-6.3 1.4-4.4-0.2-7.9-1.6-3.6-5.9-5l-4.2-1.3z" fill="#fca501" fill-rule="evenodd" id="&lt;Compound Path&gt;"/>
<path d="m350.3 88.9q1.4-3.9-2.8-6.5-2.1-1.3-3.8-1.1-1.6 0.1-2.4 1.3-0.7 1.2-0.4 2.3 0.4 1.1 1.6 2.7l4.4 5.8q2.2 2.9 2.7 5.7 0.6 2.7-1 5.3-2.3 3.6-6.3 4-3.9 0.5-8.9-2.6-4.4-2.7-5.8-6.6-1.6-4.2 0.9-8.7l4.7 3q-2 3.2 0.9 6.2 0.8 0.9 2.5 1.9 1.7 1.1 3.6 1.1 2 0.1 2.8-1.3 0.9-1.5 0.6-2.7-0.3-1.2-1.7-3l-3.9-5.3q-2.4-3.1-3-5.7-0.7-2.6 1.1-5.4 2-3.3 5.8-3.6 3.8-0.4 8.3 2.3 4.4 2.8 5.6 6.4 1.2 3.5-0.8 7.5z" fill="#fca501" id="&lt;Compound Path&gt;"/>
<path d="m369.5 92.3l-2.9 13.9 13.6-4.7 5 4.3-20.3 6.6-8.4 9.8-4.3-3.7 8.4-9.8 3.8-20.8z" fill="#fca501" id="&lt;Compound Path&gt;"/>
<path d="m393.2 128.3q2.6-3.2-0.6-7-1.5-1.9-3.2-2.3-1.6-0.4-2.7 0.5-1 0.9-1.1 2 0 1.2 0.7 3.1l2.3 6.9q1.2 3.5 0.9 6.2-0.4 2.8-2.7 4.7-3.3 2.8-7.2 1.9-3.9-0.8-7.7-5.3-3.3-3.9-3.4-8-0.2-4.6 3.5-8l3.6 4.3q-2.9 2.5-1.1 6.2 0.5 1.1 1.8 2.6 1.3 1.5 3.1 2.2 1.8 0.6 3.1-0.5 1.3-1 1.3-2.3 0.1-1.3-0.6-3.3l-2.1-6.4q-1.3-3.6-1.1-6.3 0.2-2.6 2.7-4.8 3-2.5 6.7-1.6 3.8 0.8 7.1 4.8 3.4 4 3.4 7.8 0 3.7-3.1 6.9z" fill="#fca501" id="&lt;Compound Path&gt;"/>
<path d="m407.4 132.4l12.9 21.4-4.2 2.5-5-8.2-22.4 13.5-3-4.8 22.5-13.6-5-8.2z" fill="#fca501" id="&lt;Compound Path&gt;"/>
<path d="m423.2 160l7.6 18.5-4.5 1.9-5.5-13.3-7.6 3.1 5.2 12.5-4.5 1.8-5.2-12.4-7.6 3.1 5.5 13.3-4.5 1.9-7.7-18.5z" fill="#fca501" id="&lt;Compound Path&gt;"/>
<path d="m436.3 197.2l-16.6 11.9 19.8 4.9 1.5 7.7-30.6 5.9-1.1-5.6 23.3-4.5-21.6-4.8-0.7-3.7 18.8-12.9-23.9 4.6-1.1-5.5 30.6-5.9z" fill="#fca501" id="&lt;Compound Path&gt;"/>
<path d="m432.7 250.2q4.1-0.7 4.1-5.7 0.1-2.5-0.9-3.8-1-1.4-2.3-1.4-1.4-0.1-2.2 0.8-0.8 0.9-1.5 2.7l-2.8 6.8q-1.4 3.4-3.4 5.3-2.1 1.8-5.2 1.8-4.2-0.1-6.6-3.3-2.4-3.2-2.4-9 0.1-5.2 2.7-8.4 2.8-3.6 7.9-3.7l-0.1 5.6q-3.8 0-4.9 3.9-0.3 1.2-0.3 3.2-0.1 2 0.9 3.7 1 1.6 2.6 1.7 1.7 0 2.6-0.9 0.9-0.9 1.7-3l2.5-6.1q1.4-3.6 3.3-5.5 1.9-1.9 5.2-1.8 3.9 0 6.1 3.1 2.3 3.1 2.3 8.3-0.1 5.3-2.6 8.1-2.4 2.8-6.8 3.2z" fill="#fca501" id="&lt;Compound Path&gt;"/>
</g>
</g>
<g id="&lt;Group&gt;">
<g id="&lt;Group&gt;">
<path d="m111.1 329q1.2 1.8 1.5 3.4 0.4 1.6 0.3 3-0.4 2.9-2.8 5.1l-3-3.3q1.2-1.4 1.5-3 0.3-1.6-0.6-3.1-1.3-2-3.8-2.2-2.7-0.2-5.9 1.9-3.3 2-4.4 4.3-1.1 2.4 0.2 4.5 1.3 2 3 2.4 1.6 0.5 3.2-0.5l2.4 3.8q-3.3 2-6.4 1-3-0.9-5.3-4.5-2.4-3.9-1.2-7.9 1.4-4 6.1-6.9 4.7-3 8.9-2.4 4 0.7 6.3 4.4z" fill="#fca501" id="&lt;Compound Path&gt;"/>
<path d="m118.4 340.7l9.4 11.3-2.8 2.3-6.7-8.1-4.7 3.8 6.3 7.6-2.7 2.3-6.3-7.6-4.7 3.8 6.7 8.2-2.8 2.3-9.3-11.4z" fill="#fca501" id="&lt;Compound Path&gt;"/>
<path d="m139.2 372.9q-1.6 1.8-3.8 2.1-2.2 0.3-4.5-1l-1.9 11-4-3.7 2.4-9.9-2.3-2.2-6.1 6.5-3-2.8 15.6-16.7 6.2 5.7q2.9 2.8 3.3 5.8 0.3 2.9-1.9 5.2zm-9.3-3.1q1.6 1.6 3.2 1.6 1.6 0.1 2.7-1.2 1.2-1.2 1.1-2.7 0-1.5-1.6-2.9l-3.1-3-5.2 5.6z" fill="#fca501" fill-rule="evenodd" id="&lt;Compound Path&gt;"/>
<path d="m145.7 369.2l14.8 10.7-2.1 3-5.7-4.2-11.3 15.6-3.4-2.4 11.3-15.6-5.8-4.2z" fill="#fca501" id="&lt;Compound Path&gt;"/>
<path d="m163.7 381.7l3.6 2.2-11.8 19.6-3.5-2.1z" fill="#fca501" id="&lt;Compound Path&gt;"/>
<path d="m172.9 387.1l13 6.3-1.5 3.2-9.3-4.4-2.6 5.4 8.5 4.1-1.6 3.2-8.4-4.1-4.2 8.7-3.8-1.8z" fill="#fca501" id="&lt;Compound Path&gt;"/>
<path d="m190.5 395l3.9 1.4-8 21.5-3.9-1.5z" fill="#fca501" id="&lt;Compound Path&gt;"/>
<path d="m200.4 398.6l14.3 3.8-1 3.5-10.2-2.7-1.5 5.8 9.6 2.5-1 3.5-9.5-2.5-1.6 5.8 10.2 2.7-0.9 3.5-14.2-3.8z" fill="#fca501" id="&lt;Compound Path&gt;"/>
<path d="m227.5 404.5q5.1 0.6 7.9 4.1 2.9 3.5 2.2 8.7-0.6 5.2-4.2 7.8-3.6 2.7-8.8 2.1l-7.4-1 2.9-22.7zm-5.6 18.6l3.2 0.4q3.2 0.4 5.5-1.5 2.2-1.9 2.6-5.2 0.4-3.4-1.2-5.7-1.7-2.4-5-2.8l-3.2-0.4z" fill="#fca501" fill-rule="evenodd" id="&lt;Compound Path&gt;"/>
<path d="m253.2 405.9l4.2-0.2 0.8 22.9-4.2 0.1z" fill="#fca501" id="&lt;Compound Path&gt;"/>
<path d="m260.8 405.8l18.2-2.3 0.5 3.6-7 0.8 2.3 19.2-4.1 0.5-2.4-19.1-7 0.8z" fill="#fca501" id="&lt;Compound Path&gt;"/>
<path d="m304.5 403.2q-1.5-2.7-5-1.6-1.7 0.5-2.4 1.5-0.8 1-0.5 2 0.3 1 1.1 1.3 0.8 0.4 2.3 0.4l5.3 0.4q2.7 0.2 4.5 1.2 1.8 1 2.4 3.2 1 2.9-0.7 5.3-1.7 2.5-5.8 3.8-3.6 1.1-6.4 0-3.2-1.1-4.4-4.6l3.9-1.3q0.9 2.7 3.9 2.5 0.9 0 2.3-0.4 1.3-0.5 2.3-1.5 1-1.1 0.6-2.2-0.4-1.2-1.2-1.6-0.8-0.4-2.5-0.5l-4.8-0.4q-2.9-0.2-4.6-1-1.8-0.9-2.5-3.2-0.9-2.8 0.8-5 1.6-2.3 5.3-3.5 3.6-1.2 6.2-0.1 2.5 1.1 3.8 4z" fill="#fca501" id="&lt;Compound Path&gt;"/>
<path d="m312 393.7l13.4-6.2 1.5 3.2-9.6 4.5 2.6 5.5 8.9-4.2 1.6 3.2-9 4.2 2.5 5.5 9.6-4.5 1.5 3.3-13.3 6.2z" fill="#fca501" id="&lt;Compound Path&gt;"/>
<path d="m348.4 381.6q1.3 2.1 1.1 4.2-0.2 2.2-2.1 4.2l10.2 4.6-4.6 2.9-9-4.9-2.7 1.7 4.8 7.6-3.5 2.2-12.3-19.3 7.2-4.5q3.4-2.2 6.3-1.8 2.9 0.4 4.6 3.1zm-5.3 8.3q2-1.2 2.4-2.7 0.4-1.5-0.5-3-0.9-1.4-2.4-1.7-1.4-0.3-3.2 0.8l-3.6 2.3 4 6.4z" fill="#fca501" fill-rule="evenodd" id="&lt;Compound Path&gt;"/>
<path d="m350.3 371.3l15.6 9.9-7-17.1 3.4-2.9 8.6 22.6-3.3 2.8-20.7-12.5z" fill="#fca501" id="&lt;Compound Path&gt;"/>
<path d="m364.9 358.3l2.9-3 16.3 16.1-2.9 2.9z" fill="#fca501" id="&lt;Compound Path&gt;"/>
<path d="m377 344q1.4-1.6 2.7-2.5 1.4-0.9 2.8-1.2 2.8-0.6 5.8 0.9l-2.2 4q-1.7-0.7-3.3-0.5-1.6 0.2-2.7 1.6-1.5 1.9-0.9 4.3 0.7 2.6 3.7 5 3 2.4 5.6 2.7 2.6 0.2 4.1-1.7 1.5-1.9 1.4-3.6-0.2-1.7-1.6-2.8l2.8-3.5q3 2.4 3.1 5.6 0.1 3.2-2.6 6.6-2.8 3.5-7 3.6-4.2 0.1-8.6-3.4-4.4-3.5-5.1-7.7-0.7-4 2-7.4z" fill="#fca501" id="&lt;Compound Path&gt;"/>
<path d="m385.7 333.3l7.6-12.6 3.1 1.9-5.5 9 5.1 3.2 5.2-8.5 3.1 1.9-5.2 8.4 5.2 3.2 5.5-9.1 3.1 1.9-7.7 12.6z" fill="#fca501" id="&lt;Compound Path&gt;"/>
</g>
</g>
<path d="m84.4 289.4c0 0-3.3 7.4-4 9-0.6 1.6-7.9 2.4-10.2 5.3 0 0 0 1.1 9.1 2.8 1.8 4 3.9 9 3.9 9 0 0 3.6-7.5 6.2-9.2 2.6-1.7 6-3.3 6-3.3 0 0-5.8-2.3-7.9-4.6-2-2.2-3.1-9-3.1-9z" fill="#fca501" id="&lt;Path&gt;"/>
<path d="m418.3 306.8c0 0 2.8-7.8 4.4-9.4 1.7-1.6 10.2-3.8 10.2-3.8 0 0-10.1-2.9-10.9-4.7-0.7-1.8-3.7-8.4-3.7-8.4 0 0-3.3 7.8-3.7 8.7-0.3 0.9-3.8 2.9-8.2 4.5 1.4 1.2 7.3 2.7 7.3 2.7z" fill="#fca501" id="&lt;Path&gt;"/>
</g>
</g>
</svg>